HIERARCHY
ROOT Hips
{
  OFFSET 5.84602e-005 68.8428 3.50346
  CHANNELS 6 Xposition Yposition Zposition Zrotation Xrotation Yrotation
  JOINT Spine
  {
    OFFSET 0 8.597 -4.6522
    CHANNELS 3 Zrotation Xrotation Yrotation
    JOINT Spine1
    {
      OFFSET 0 7.8454 0.4098
      CHANNELS 3 Zrotation Xrotation Yrotation
      JOINT Spine2
      {
        OFFSET 0 9.7078 -2.1609
        CHANNELS 3 Zrotation Xrotation Yrotation
        JOINT Neck
        {
          OFFSET 0 21.8761 -0.4549
          CHANNELS 3 Zrotation Xrotation Yrotation
          JOINT Head
          {
            OFFSET 0 12.3537 3.3602
            CHANNELS 3 Zrotation Xrotation Yrotation
            End Site
            {
              OFFSET 0.0001 18.9506 0.5657
            }
          }
        }
        JOINT LeftShoulder
        {
          OFFSET 2.2086 21.1115 7.2329
          CHANNELS 3 Zrotation Xrotation Yrotation
          JOINT LeftArm
          {
            OFFSET 13.1193 3.0282 -4.8998
            CHANNELS 3 Zrotation Xrotation Yrotation
            JOINT LeftForeArm
            {
              OFFSET 27.4081 -0.0973053 -0.2375
              CHANNELS 3 Zrotation Xrotation Yrotation
              JOINT LeftHand
              {
                OFFSET 22.8641 0.0662994 -0.1369
                CHANNELS 3 Zrotation Xrotation Yrotation
                JOINT LeftHandIndex1
                {
                  OFFSET 8.8614 0.775009 2.4612
                  CHANNELS 3 Zrotation Xrotation Yrotation
                  JOINT LeftHandIndex2
                  {
                    OFFSET 3.3146 -0.808304 0.5841
                    CHANNELS 3 Zrotation Xrotation Yrotation
                    JOINT LeftHandIndex3
                    {
                      OFFSET 2.2628 -0.552002 0.3989
                      CHANNELS 3 Zrotation Xrotation Yrotation
                      End Site
                      {
                        OFFSET 1.6102 -0.4807 0.2612
                      }
                    }
                  }
                }
                JOINT LeftHandMiddle1
                {
                  OFFSET 8.9937 0.895004 0.2143
                  CHANNELS 3 Zrotation Xrotation Yrotation
                  JOINT LeftHandMiddle2
                  {
                    OFFSET 4.0984 0.0113983 -0.0242
                    CHANNELS 3 Zrotation Xrotation Yrotation
                    JOINT LeftHandMiddle3
                    {
                      OFFSET 2.2716 0.00689697 -0.0138001
                      CHANNELS 3 Zrotation Xrotation Yrotation
                      End Site
                      {
                        OFFSET 2.0404 -0.1441 0.0027
                      }
                    }
                  }
                }
                JOINT LeftHandRing1
                {
                  OFFSET 8.5234 0.597198 -2.0164
                  CHANNELS 3 Zrotation Xrotation Yrotation
                  JOINT LeftHandRing2
                  {
                    OFFSET 3.7188 -0.188293 -0.2328
                    CHANNELS 3 Zrotation Xrotation Yrotation
                    JOINT LeftHandRing3
                    {
                      OFFSET 2.1191 -0.106598 -0.1332
                      CHANNELS 3 Zrotation Xrotation Yrotation
                      End Site
                      {
                        OFFSET 1.8737 -0.2304 -0.0886
                      }
                    }
                  }
                }
                JOINT LeftHandPinky1
                {
                  OFFSET 7.9094 -0.601089 -3.4825
                  CHANNELS 3 Zrotation Xrotation Yrotation
                  JOINT LeftHandPinky2
                  {
                    OFFSET 2.2874 -0.477005 -0.6314
                    CHANNELS 3 Zrotation Xrotation Yrotation
                    JOINT LeftHandPinky3
                    {
                      OFFSET 1.6774 -0.349396 -0.4633
                      CHANNELS 3 Zrotation Xrotation Yrotation
                      End Site
                      {
                        OFFSET 1.4888 -0.4091 -0.3416
                      }
                    }
                  }
                }
                JOINT LeftHandThumb1
                {
                  OFFSET 1.833 -1.3875 1.3896
                  CHANNELS 3 Zrotation Xrotation Yrotation
                  JOINT LeftHandThumb2
                  {
                    OFFSET 3.4129 -1.121 2.5732
                    CHANNELS 3 Zrotation Xrotation Yrotation
                    JOINT LeftHandThumb3
                    {
                      OFFSET 2.2474 -0.804199 1.6192
                      CHANNELS 3 Zrotation Xrotation Yrotation
                      End Site
                      {
                        OFFSET 1.6527 -0.5689 1.1317
                      }
                    }
                  }
                }
              }
            }
          }
        }
        JOINT RightShoulder
        {
          OFFSET -2.2086 21.1115 7.2329
          CHANNELS 3 Zrotation Xrotation Yrotation
          JOINT RightArm
          {
            OFFSET -13.1216 3.0287 -4.9007
            CHANNELS 3 Zrotation Xrotation Yrotation
            JOINT RightForeArm
            {
              OFFSET -27.4081 -0.0973053 -0.2375
              CHANNELS 3 Zrotation Xrotation Yrotation
              JOINT RightHand
              {
                OFFSET -22.8641 0.0664063 -0.1369
                CHANNELS 3 Zrotation Xrotation Yrotation
                JOINT RightHandIndex1
                {
                  OFFSET -8.8614 0.774994 2.4612
                  CHANNELS 3 Zrotation Xrotation Yrotation
                  JOINT RightHandIndex2
                  {
                    OFFSET -3.3146 -0.808304 0.5841
                    CHANNELS 3 Zrotation Xrotation Yrotation
                    JOINT RightHandIndex3
                    {
                      OFFSET -2.2628 -0.552002 0.3989
                      CHANNELS 3 Zrotation Xrotation Yrotation
                      End Site
                      {
                        OFFSET -1.6102 -0.4807 0.2612
                      }
                    }
                  }
                }
                JOINT RightHandMiddle1
                {
                  OFFSET -8.9937 0.894989 0.2143
                  CHANNELS 3 Zrotation Xrotation Yrotation
                  JOINT RightHandMiddle2
                  {
                    OFFSET -4.0984 0.0113983 -0.0242
                    CHANNELS 3 Zrotation Xrotation Yrotation
                    JOINT RightHandMiddle3
                    {
                      OFFSET -2.2716 0.00691223 -0.0138001
                      CHANNELS 3 Zrotation Xrotation Yrotation
                      End Site
                      {
                        OFFSET -2.0404 -0.1441 0.0027
                      }
                    }
                  }
                }
                JOINT RightHandRing1
                {
                  OFFSET -8.5234 0.597198 -2.0164
                  CHANNELS 3 Zrotation Xrotation Yrotation
                  JOINT RightHandRing2
                  {
                    OFFSET -3.7188 -0.188309 -0.2328
                    CHANNELS 3 Zrotation Xrotation Yrotation
                    JOINT RightHandRing3
                    {
                      OFFSET -2.1191 -0.106598 -0.1332
                      CHANNELS 3 Zrotation Xrotation Yrotation
                      End Site
                      {
                        OFFSET -1.8737 -0.2304 -0.0886
                      }
                    }
                  }
                }
                JOINT RightHandPinky1
                {
                  OFFSET -7.9094 -0.601105 -3.4825
                  CHANNELS 3 Zrotation Xrotation Yrotation
                  JOINT RightHandPinky2
                  {
                    OFFSET -2.2874 -0.477005 -0.6314
                    CHANNELS 3 Zrotation Xrotation Yrotation
                    JOINT RightHandPinky3
                    {
                      OFFSET -1.6774 -0.349396 -0.4633
                      CHANNELS 3 Zrotation Xrotation Yrotation
                      End Site
                      {
                        OFFSET -1.4888 -0.4091 -0.3416
                      }
                    }
                  }
                }
                JOINT RightHandThumb1
                {
                  OFFSET -1.833 -1.38751 1.3896
                  CHANNELS 3 Zrotation Xrotation Yrotation
                  JOINT RightHandThumb2
                  {
                    OFFSET -3.41299 -1.12099 2.5732
                    CHANNELS 3 Zrotation Xrotation Yrotation
                    JOINT RightHandThumb3
                    {
                      OFFSET -2.24741 -0.804108 1.6192
                      CHANNELS 3 Zrotation Xrotation Yrotation
                      End Site
                      {
                        OFFSET -1.6527 -0.5689 1.1317
                      }
                    }
                  }
                }
              }
            }
          }
        }
      }
    }
  }
  JOINT RightUpLeg
  {
    OFFSET -9.1966 3.8861 -0.7581
    CHANNELS 3 Zrotation Xrotation Yrotation
    JOINT RightLeg
    {
      OFFSET -0.7359 -41.0265 0
      CHANNELS 3 Zrotation Xrotation Yrotation
      JOINT RightFoot
      {
        OFFSET 0 -40.2855 0
        CHANNELS 3 Zrotation Xrotation Yrotation
        JOINT RightToeBase
        {
          OFFSET 0 -5.6122 11.7359
          CHANNELS 3 Zrotation Xrotation Yrotation
          End Site
          {
            OFFSET 0 0 7.8731
          }
        }
      }
    }
  }
  JOINT LeftUpLeg
  {
    OFFSET 9.1965 3.8864 -0.7581
    CHANNELS 3 Zrotation Xrotation Yrotation
    JOINT LeftLeg
    {
      OFFSET 0.7359 -41.0268 0
      CHANNELS 3 Zrotation Xrotation Yrotation
      JOINT LeftFoot
      {
        OFFSET 0 -40.2855 0
        CHANNELS 3 Zrotation Xrotation Yrotation
        JOINT LeftToeBase
        {
          OFFSET 0 -5.6122 11.7359
          CHANNELS 3 Zrotation Xrotation Yrotation
          End Site
          {
            OFFSET 0 0 7.8731
          }
        }
      }
    }
  }
}
MOTION
Frames:	4
Frame Time:	0.0333333
5.84602e-005 68.8428 3.50346 0 0 -0 0 0 -0 0 0 -0 0 0 -0 0 0 -0 0 0 -0 0 0 -0 0 0 -0 0 0 -0 0 0 -0 0 0 -0 0 0 -0 0 0 -0 0 0 -0 -0.0146107 -8.87603e-005 -2.63497e-007 2.99804e-018 -2.42657e-020 -1.42182e-022 0 0 -0 -0.0187562 -0.001176 5.858e-005 5.06224e-018 3.88251e-019 1.21329e-020 0 0 -0 -0.012269 -0.00324817 0.000675346 -1.74678e-018 3.88251e-019 -0 0 0 -0 0 0 -0 0 0 -0 0 0 -0 0 0 -0 0 0 -0 0 0 -0 0 0 -0 0 0 -0 0 0 -0 0 0 -0 0.0149955 -9.10982e-005 2.64101e-007 -9.69331e-018 1.21329e-020 -4.7394e-023 0 0 -0 0.0189956 -0.00119102 -5.96516e-005 -5.41541e-019 0 2.42657e-020 0 0 -0 0.0122698 -0.00324857 -0.000673756 -2.00796e-019 0 -1.94126e-019 0 0 -0 0 0 -0 0 0 -0 3.39842 1.33031 -0.0637918 -5.65207e-008 0.834868 -0.000436188 -3.39935 -2.16518 -0.0642563 -8.89002e-024 -1.18485e-023 -1.48106e-024 -3.39844 1.35642 0.0640283 -3.18788e-007 0.782166 -0.000588827 3.39931 -2.13858 0.0634662 1.1399e-023 0 -0 
16.2611 20.8758 -32.6193 -66.6781 76.3044 -7.09443e-006 1.64923 -1.01536 -0.179586 3.29605 -2.0355 -0.329933 3.29606 -2.03549 -0.329937 -0.0087394 20.7948 -9.67085e-006 -0.0309953 14.4847 0.00923663 -12.0328 -3.78249 -32.0542 -34.1283 -12.1372 -11.8418 18.4077 -22.4157 -43.678 -0.0123328 -0.00643239 0.0101233 -7.13117e-007 1.79422e-007 4.51118e-007 -6.89041e-007 7.30949e-007 1.35852e-006 7.13117e-007 -1.79421e-007 -4.51118e-007 -7.13117e-007 1.79422e-007 4.51118e-007 -0.0146133 -8.66632e-005 1.22161e-006 2.11868e-030 1.27222e-014 -9.54166e-015 -7.13117e-007 1.79422e-007 4.51118e-007 -0.0187272 -0.00117495 6.03234e-005 -7.10367e-007 1.7952e-007 4.51146e-007 -7.13117e-007 1.79422e-007 4.51118e-007 -0.0122711 -0.00324461 0.0006715 -7.11304e-007 1.79853e-007 4.51059e-007 -7.13117e-007 1.79422e-007 4.51118e-007 -6.89041e-007 7.30949e-007 1.35852e-006 7.13117e-007 -1.79421e-007 -4.51118e-007 -18.1203 -9.10716 23.4458 22.9587 -15.3157 26.1782 31.1914 -52.7194 89.7061 34.507 13.084 -6.61673 -9.26108e-007 -1.48002e-006 -2.63378e-006 6.36111e-015 -7.95139e-016 3.18055e-015 9.26108e-007 1.48002e-006 2.63378e-006 -9.26108e-007 -1.48002e-006 -2.63378e-006 0.0149183 -8.96765e-005 2.17124e-006 6.36111e-015 7.95139e-016 1.59028e-015 -9.26108e-007 -1.48002e-006 -2.63378e-006 0.0189653 -0.00118837 -5.32712e-005 -3.18055e-015 -9.54166e-015 4.77083e-015 -9.26108e-007 -1.48002e-006 -2.63378e-006 0.0122407 -0.00324167 -0.00067331 9.27821e-007 1.47987e-006 2.6335e-006 -9.26108e-007 -1.48002e-006 -2.63378e-006 6.36111e-015 -7.95139e-016 3.18055e-015 9.26108e-007 1.48002e-006 2.63378e-006 10.562 -22.4669 3.34734 2.18846 25.8378 -18.0887 -3.13978 19.1763 1.10034 -0 0 2.38542e-015 -6.24394 -53.0529 -2.85661 3.53206 35.1153 -1.25139 4.39258 3.51229 0.370844 -3.88939e-006 -5.7322e-007 6.52668e-006 
29.1715 -0.861527 -46.451 83.3168 69.3586 180 2.38778 -1.43733 -0.17777 4.77336 -2.88077 -0.295616 4.77335 -2.88079 -0.295614 -0.0133196 29.7307 0.000413156 -0.0463443 20.2747 0.0132697 -18.663 -4.55869 -46.395 -51.3217 -17.119 -17.6772 17.4295 -21.4606 -65.1642 0.0432004 0.0225247 -0.035419 -7.82362e-008 1.43601e-008 -6.368e-007 1.30124e-006 2.5355e-007 -7.88815e-007 -7.8236e-008 1.43602e-008 -6.36801e-007 -7.82362e-008 1.43601e-008 -6.368e-007 -0.0146156 -9.07865e-005 -5.36613e-006 -8.00472e-008 1.44301e-008 -6.36799e-007 -7.82362e-008 1.43601e-008 -6.368e-007 -0.018753 -0.00117424 5.59694e-005 4.08187e-007 1.29983e-007 -1.62968e-006 -7.82362e-008 1.43601e-008 -6.368e-007 -0.0122427 -0.00323895 0.000671272 -7.97706e-008 1.40274e-008 -6.36713e-007 -7.82362e-008 1.43601e-008 -6.368e-007 1.30124e-006 2.5355e-007 -7.88815e-007 -7.8236e-008 1.43602e-008 -6.36801e-007 -23.9117 -12.0486 34.1934 37.91 -19.4551 39.2443 51.3812 -26.5071 115.069 51.0017 18.8523 -9.86204 3.18055e-015 -6.36111e-015 4.77083e-015 6.36111e-015 0 6.36111e-015 3.18055e-015 -6.36111e-015 3.18055e-015 3.18055e-015 -6.36111e-015 4.77083e-015 0.0149689 -9.09309e-005 1.24514e-006 9.54166e-015 0 1.59028e-015 3.18055e-015 -6.36111e-015 4.77083e-015 0.0190012 -0.00119255 -5.80437e-005 -1.22519e-006 -5.26822e-008 -2.08652e-006 3.18055e-015 -6.36111e-015 4.77083e-015 0.0122618 -0.00324344 -0.00067365 -3.18055e-015 0 -1.59028e-015 3.18055e-015 -6.36111e-015 4.77083e-015 6.36111e-015 0 6.36111e-015 3.18055e-015 -6.36111e-015 3.18055e-015 14.5078 -32.3729 5.21994 8.85285 32.5266 -28.575 -4.73714 30.8159 1.9114 4.41391e-032 -3.18055e-015 7.95139e-016 -15.0999 -77.6865 -11.0999 6.81387 51.8998 -3.04689 4.91709 4.82248 0.603359 -4.3502e-007 1.36448e-005 -4.81247e-007 
26.1365 4.32269 -43.479 89.9846 76.9891 180 2.22462 -1.2692 -0.192782 4.4466 -2.54492 -0.336238 4.44658 -2.54493 -0.336236 -0.0119243 26.8067 -1.81629e-005 -0.0424486 17.3692 0.010994 -17.0272 -4.70144 -42.8656 -47.73 -15.9134 -16.5406 17.6888 -22.3836 -60.8581 0.166759 0.0868395 -0.136657 -1.76103e-007 -6.91752e-007 7.73542e-007 -1.11778e-006 6.02439e-007 5.88735e-007 -9.79789e-007 -8.40305e-007 5.28446e-007 -1.76103e-007 -6.91752e-007 7.73542e-007 -0.0146061 -8.72264e-005 -3.36007e-007 -9.77989e-007 -8.40361e-007 5.2834e-007 -1.76103e-007 -6.91752e-007 7.73542e-007 -0.0187637 -0.0011721 6.09035e-005 -9.77472e-007 -8.40246e-007 5.28311e-007 -1.76103e-007 -6.91752e-007 7.73542e-007 -0.0122704 -0.00325129 0.000676245 -8.03698e-007 -1.48523e-007 -2.45089e-007 -1.76103e-007 -6.91752e-007 7.73542e-007 -1.11778e-006 6.02439e-007 5.88735e-007 -9.79789e-007 -8.40305e-007 5.28446e-007 -22.7447 -11.7385 31.3484 34.6215 -18.5412 36.4835 49.0761 -32.6637 113.346 47.1229 17.6284 -9.08152 1.25097e-006 -3.58124e-007 3.52149e-006 2.38623e-006 -1.69825e-006 1.13526e-006 1.25097e-006 -3.58124e-007 3.52149e-006 1.25097e-006 -3.58124e-007 3.52149e-006 0.015018 -8.83975e-005 5.47336e-006 1.25058e-006 -3.5766e-007 3.52153e-006 1.25097e-006 -3.58124e-007 3.52149e-006 0.0189741 -0.00118976 -5.6094e-005 -2.67479e-007 2.42517e-007 1.21509e-006 1.25097e-006 -3.58124e-007 3.52149e-006 0.0122562 -0.0032428 -0.000676398 -2.67983e-007 2.42284e-007 1.21506e-006 1.25097e-006 -3.58124e-007 3.52149e-006 2.38623e-006 -1.69825e-006 1.13526e-006 1.25097e-006 -3.58124e-007 3.52149e-006 13.5642 -29.7691 4.80001 6.81159 30.3923 -25.8863 -4.29355 28.685 1.69475 2.38542e-015 3.18055e-015 -2.38542e-015 -11.104 -72.3864 -7.28208 5.82275 48.0808 -2.44934 4.76199 4.47086 0.552605 3.97569e-016 7.95139e-016 4.47266e-016 
